<mxfile host="Electron" modified="2024-02-28T01:08:18.482Z" agent="Mozilla/5.0 (Windows NT 10.0; Win64; x64) AppleWebKit/537.36 (KHTML, like Gecko) draw.io/23.1.5 Chrome/120.0.6099.109 Electron/28.1.0 Safari/537.36" etag="DOj741zr9r6JkwAXIa4G" version="23.1.5" type="device">
  <diagram id="C5RBs43oDa-KdzZeNtuy" name="Page-1">
    <mxGraphModel dx="2665" dy="1069" grid="1" gridSize="10" guides="1" tooltips="1" connect="1" arrows="1" fold="1" page="1" pageScale="1" pageWidth="827" pageHeight="1169" math="0" shadow="0">
      <root>
        <mxCell id="WIyWlLk6GJQsqaUBKTNV-0" />
        <mxCell id="WIyWlLk6GJQsqaUBKTNV-1" parent="WIyWlLk6GJQsqaUBKTNV-0" />
        <mxCell id="3-jGIpkRdXsMZn57FnSe-0" value="Login Page" style="rounded=1;whiteSpace=wrap;html=1;" vertex="1" parent="WIyWlLk6GJQsqaUBKTNV-1">
          <mxGeometry x="240" y="380" width="120" height="60" as="geometry" />
        </mxCell>
        <mxCell id="3-jGIpkRdXsMZn57FnSe-1" value="SignUp&amp;nbsp;Page" style="rounded=1;whiteSpace=wrap;html=1;" vertex="1" parent="WIyWlLk6GJQsqaUBKTNV-1">
          <mxGeometry x="494" y="380" width="120" height="60" as="geometry" />
        </mxCell>
        <mxCell id="3-jGIpkRdXsMZn57FnSe-4" value="Main Page" style="rounded=1;whiteSpace=wrap;html=1;" vertex="1" parent="WIyWlLk6GJQsqaUBKTNV-1">
          <mxGeometry x="365" y="590" width="120" height="60" as="geometry" />
        </mxCell>
        <mxCell id="3-jGIpkRdXsMZn57FnSe-5" value="" style="endArrow=classic;html=1;rounded=0;entryX=0;entryY=0.5;entryDx=0;entryDy=0;exitX=0.5;exitY=1;exitDx=0;exitDy=0;" edge="1" parent="WIyWlLk6GJQsqaUBKTNV-1" source="3-jGIpkRdXsMZn57FnSe-0" target="3-jGIpkRdXsMZn57FnSe-15">
          <mxGeometry width="50" height="50" relative="1" as="geometry">
            <mxPoint x="270" y="600" as="sourcePoint" />
            <mxPoint x="320" y="550" as="targetPoint" />
            <Array as="points">
              <mxPoint x="300" y="515" />
            </Array>
          </mxGeometry>
        </mxCell>
        <mxCell id="3-jGIpkRdXsMZn57FnSe-7" value="User Profile" style="rounded=1;whiteSpace=wrap;html=1;" vertex="1" parent="WIyWlLk6GJQsqaUBKTNV-1">
          <mxGeometry x="-164" y="976" width="120" height="60" as="geometry" />
        </mxCell>
        <mxCell id="3-jGIpkRdXsMZn57FnSe-8" value="Analysis History" style="rounded=1;whiteSpace=wrap;html=1;" vertex="1" parent="WIyWlLk6GJQsqaUBKTNV-1">
          <mxGeometry x="151" y="976" width="120" height="60" as="geometry" />
        </mxCell>
        <mxCell id="3-jGIpkRdXsMZn57FnSe-14" value="Sign up Button" style="rhombus;whiteSpace=wrap;html=1;" vertex="1" parent="WIyWlLk6GJQsqaUBKTNV-1">
          <mxGeometry x="380" y="240" width="90" height="90" as="geometry" />
        </mxCell>
        <mxCell id="3-jGIpkRdXsMZn57FnSe-15" value="Login Button" style="rhombus;whiteSpace=wrap;html=1;" vertex="1" parent="WIyWlLk6GJQsqaUBKTNV-1">
          <mxGeometry x="380" y="470" width="90" height="90" as="geometry" />
        </mxCell>
        <mxCell id="3-jGIpkRdXsMZn57FnSe-16" value="" style="endArrow=classic;html=1;rounded=0;entryX=0.5;entryY=0;entryDx=0;entryDy=0;exitX=0.5;exitY=1;exitDx=0;exitDy=0;" edge="1" parent="WIyWlLk6GJQsqaUBKTNV-1" source="3-jGIpkRdXsMZn57FnSe-15" target="3-jGIpkRdXsMZn57FnSe-4">
          <mxGeometry width="50" height="50" relative="1" as="geometry">
            <mxPoint x="350" y="570" as="sourcePoint" />
            <mxPoint x="400" y="520" as="targetPoint" />
          </mxGeometry>
        </mxCell>
        <mxCell id="3-jGIpkRdXsMZn57FnSe-24" value="" style="endArrow=classic;html=1;rounded=0;entryX=1;entryY=0.5;entryDx=0;entryDy=0;exitX=0.5;exitY=0;exitDx=0;exitDy=0;" edge="1" parent="WIyWlLk6GJQsqaUBKTNV-1" source="3-jGIpkRdXsMZn57FnSe-1" target="3-jGIpkRdXsMZn57FnSe-14">
          <mxGeometry width="50" height="50" relative="1" as="geometry">
            <mxPoint x="530" y="540" as="sourcePoint" />
            <mxPoint x="580" y="490" as="targetPoint" />
            <Array as="points">
              <mxPoint x="554" y="285" />
            </Array>
          </mxGeometry>
        </mxCell>
        <mxCell id="3-jGIpkRdXsMZn57FnSe-25" value="" style="endArrow=classic;html=1;rounded=0;entryX=0.5;entryY=0;entryDx=0;entryDy=0;exitX=0;exitY=0.5;exitDx=0;exitDy=0;" edge="1" parent="WIyWlLk6GJQsqaUBKTNV-1" source="3-jGIpkRdXsMZn57FnSe-14" target="3-jGIpkRdXsMZn57FnSe-0">
          <mxGeometry width="50" height="50" relative="1" as="geometry">
            <mxPoint x="290" y="340" as="sourcePoint" />
            <mxPoint x="340" y="290" as="targetPoint" />
            <Array as="points">
              <mxPoint x="300" y="285" />
            </Array>
          </mxGeometry>
        </mxCell>
        <mxCell id="3-jGIpkRdXsMZn57FnSe-26" value="" style="endArrow=classic;html=1;rounded=0;entryX=0;entryY=0.25;entryDx=0;entryDy=0;exitX=1;exitY=0.25;exitDx=0;exitDy=0;" edge="1" parent="WIyWlLk6GJQsqaUBKTNV-1" source="3-jGIpkRdXsMZn57FnSe-0" target="3-jGIpkRdXsMZn57FnSe-1">
          <mxGeometry width="50" height="50" relative="1" as="geometry">
            <mxPoint x="370" y="420" as="sourcePoint" />
            <mxPoint x="420" y="370" as="targetPoint" />
          </mxGeometry>
        </mxCell>
        <mxCell id="3-jGIpkRdXsMZn57FnSe-27" value="" style="endArrow=classic;html=1;rounded=0;entryX=1;entryY=0.75;entryDx=0;entryDy=0;exitX=0;exitY=0.75;exitDx=0;exitDy=0;" edge="1" parent="WIyWlLk6GJQsqaUBKTNV-1" source="3-jGIpkRdXsMZn57FnSe-1" target="3-jGIpkRdXsMZn57FnSe-0">
          <mxGeometry width="50" height="50" relative="1" as="geometry">
            <mxPoint x="370" y="405" as="sourcePoint" />
            <mxPoint x="504" y="405" as="targetPoint" />
          </mxGeometry>
        </mxCell>
        <mxCell id="3-jGIpkRdXsMZn57FnSe-28" value="Don&#39;t have account?" style="text;html=1;align=center;verticalAlign=middle;whiteSpace=wrap;rounded=0;" vertex="1" parent="WIyWlLk6GJQsqaUBKTNV-1">
          <mxGeometry x="395" y="360" width="60" height="30" as="geometry" />
        </mxCell>
        <mxCell id="3-jGIpkRdXsMZn57FnSe-29" value="Already have account?" style="text;html=1;align=center;verticalAlign=middle;whiteSpace=wrap;rounded=0;" vertex="1" parent="WIyWlLk6GJQsqaUBKTNV-1">
          <mxGeometry x="387.5" y="430" width="75" height="30" as="geometry" />
        </mxCell>
        <mxCell id="3-jGIpkRdXsMZn57FnSe-30" value="Avatar Button" style="rhombus;whiteSpace=wrap;html=1;" vertex="1" parent="WIyWlLk6GJQsqaUBKTNV-1">
          <mxGeometry x="380" y="670" width="90" height="90" as="geometry" />
        </mxCell>
        <mxCell id="3-jGIpkRdXsMZn57FnSe-32" value="" style="endArrow=classic;html=1;rounded=0;entryX=0.5;entryY=0;entryDx=0;entryDy=0;exitX=0.5;exitY=1;exitDx=0;exitDy=0;" edge="1" parent="WIyWlLk6GJQsqaUBKTNV-1" source="3-jGIpkRdXsMZn57FnSe-4" target="3-jGIpkRdXsMZn57FnSe-30">
          <mxGeometry width="50" height="50" relative="1" as="geometry">
            <mxPoint x="435" y="570" as="sourcePoint" />
            <mxPoint x="435" y="650" as="targetPoint" />
          </mxGeometry>
        </mxCell>
        <mxCell id="3-jGIpkRdXsMZn57FnSe-35" value="" style="endArrow=classic;html=1;rounded=0;exitX=0.5;exitY=0;exitDx=0;exitDy=0;entryX=0.5;entryY=1;entryDx=0;entryDy=0;" edge="1" parent="WIyWlLk6GJQsqaUBKTNV-1" source="3-jGIpkRdXsMZn57FnSe-37" target="3-jGIpkRdXsMZn57FnSe-40">
          <mxGeometry width="50" height="50" relative="1" as="geometry">
            <mxPoint x="368.5" y="782" as="sourcePoint" />
            <mxPoint x="368.5" y="702" as="targetPoint" />
            <Array as="points">
              <mxPoint x="53.5" y="522" />
            </Array>
          </mxGeometry>
        </mxCell>
        <mxCell id="3-jGIpkRdXsMZn57FnSe-11" value="" style="endArrow=classic;html=1;rounded=0;entryX=0.5;entryY=0;entryDx=0;entryDy=0;exitX=0.5;exitY=1;exitDx=0;exitDy=0;" edge="1" parent="WIyWlLk6GJQsqaUBKTNV-1" source="3-jGIpkRdXsMZn57FnSe-43" target="3-jGIpkRdXsMZn57FnSe-7">
          <mxGeometry width="50" height="50" relative="1" as="geometry">
            <mxPoint x="51" y="806" as="sourcePoint" />
            <mxPoint x="121" y="816" as="targetPoint" />
          </mxGeometry>
        </mxCell>
        <mxCell id="3-jGIpkRdXsMZn57FnSe-37" value="User Menu Dialog" style="rounded=1;whiteSpace=wrap;html=1;dashed=1;" vertex="1" parent="WIyWlLk6GJQsqaUBKTNV-1">
          <mxGeometry x="-6.5" y="687" width="120" height="60" as="geometry" />
        </mxCell>
        <mxCell id="3-jGIpkRdXsMZn57FnSe-39" value="" style="endArrow=classic;html=1;rounded=0;exitX=0;exitY=0.5;exitDx=0;exitDy=0;entryX=1;entryY=0.5;entryDx=0;entryDy=0;" edge="1" parent="WIyWlLk6GJQsqaUBKTNV-1" source="3-jGIpkRdXsMZn57FnSe-30" target="3-jGIpkRdXsMZn57FnSe-37">
          <mxGeometry width="50" height="50" relative="1" as="geometry">
            <mxPoint x="424.5" y="830" as="sourcePoint" />
            <mxPoint x="425" y="1010" as="targetPoint" />
          </mxGeometry>
        </mxCell>
        <mxCell id="3-jGIpkRdXsMZn57FnSe-40" value="Logout Button" style="rhombus;whiteSpace=wrap;html=1;" vertex="1" parent="WIyWlLk6GJQsqaUBKTNV-1">
          <mxGeometry x="8.5" y="367" width="90" height="90" as="geometry" />
        </mxCell>
        <mxCell id="3-jGIpkRdXsMZn57FnSe-41" value="" style="endArrow=classic;html=1;rounded=0;entryX=0;entryY=0.5;entryDx=0;entryDy=0;exitX=1;exitY=0.5;exitDx=0;exitDy=0;" edge="1" parent="WIyWlLk6GJQsqaUBKTNV-1" source="3-jGIpkRdXsMZn57FnSe-40" target="3-jGIpkRdXsMZn57FnSe-0">
          <mxGeometry width="50" height="50" relative="1" as="geometry">
            <mxPoint x="210" y="620" as="sourcePoint" />
            <mxPoint x="260" y="570" as="targetPoint" />
          </mxGeometry>
        </mxCell>
        <mxCell id="3-jGIpkRdXsMZn57FnSe-42" value="History Button" style="rhombus;whiteSpace=wrap;html=1;" vertex="1" parent="WIyWlLk6GJQsqaUBKTNV-1">
          <mxGeometry x="166" y="762" width="90" height="90" as="geometry" />
        </mxCell>
        <mxCell id="3-jGIpkRdXsMZn57FnSe-43" value="Profile Button" style="rhombus;whiteSpace=wrap;html=1;" vertex="1" parent="WIyWlLk6GJQsqaUBKTNV-1">
          <mxGeometry x="-149" y="762" width="90" height="90" as="geometry" />
        </mxCell>
        <mxCell id="3-jGIpkRdXsMZn57FnSe-45" value="" style="endArrow=classic;html=1;rounded=0;entryX=0.5;entryY=0;entryDx=0;entryDy=0;exitX=0.5;exitY=1;exitDx=0;exitDy=0;" edge="1" parent="WIyWlLk6GJQsqaUBKTNV-1" source="3-jGIpkRdXsMZn57FnSe-42" target="3-jGIpkRdXsMZn57FnSe-8">
          <mxGeometry width="50" height="50" relative="1" as="geometry">
            <mxPoint x="-94" y="862" as="sourcePoint" />
            <mxPoint x="-94" y="986" as="targetPoint" />
          </mxGeometry>
        </mxCell>
        <mxCell id="3-jGIpkRdXsMZn57FnSe-47" value="" style="group" vertex="1" connectable="0" parent="WIyWlLk6GJQsqaUBKTNV-1">
          <mxGeometry x="53.5" y="807" as="geometry" />
        </mxCell>
        <mxCell id="3-jGIpkRdXsMZn57FnSe-10" value="" style="endArrow=classic;html=1;rounded=0;entryX=0;entryY=0.5;entryDx=0;entryDy=0;exitX=0.5;exitY=1;exitDx=0;exitDy=0;" edge="1" parent="3-jGIpkRdXsMZn57FnSe-47" source="3-jGIpkRdXsMZn57FnSe-37" target="3-jGIpkRdXsMZn57FnSe-42">
          <mxGeometry width="50" height="50" relative="1" as="geometry">
            <mxPoint x="-2.2737367544323206e-13" y="-40" as="sourcePoint" />
            <mxPoint x="92.5" y="-1" as="targetPoint" />
            <Array as="points">
              <mxPoint />
            </Array>
          </mxGeometry>
        </mxCell>
        <mxCell id="3-jGIpkRdXsMZn57FnSe-44" value="" style="endArrow=classic;html=1;rounded=0;entryX=1;entryY=0.5;entryDx=0;entryDy=0;exitX=0.5;exitY=1;exitDx=0;exitDy=0;" edge="1" parent="3-jGIpkRdXsMZn57FnSe-47" source="3-jGIpkRdXsMZn57FnSe-37" target="3-jGIpkRdXsMZn57FnSe-43">
          <mxGeometry width="50" height="50" relative="1" as="geometry">
            <mxPoint x="-2.2737367544323206e-13" y="-40" as="sourcePoint" />
            <mxPoint x="156.5" y="10" as="targetPoint" />
            <Array as="points">
              <mxPoint />
            </Array>
          </mxGeometry>
        </mxCell>
        <mxCell id="3-jGIpkRdXsMZn57FnSe-50" value="" style="group" vertex="1" connectable="0" parent="WIyWlLk6GJQsqaUBKTNV-1">
          <mxGeometry x="-110" y="1100" width="535" as="geometry" />
        </mxCell>
        <mxCell id="3-jGIpkRdXsMZn57FnSe-48" value="" style="endArrow=classic;html=1;rounded=0;entryX=0.5;entryY=1;entryDx=0;entryDy=0;exitX=0.5;exitY=1;exitDx=0;exitDy=0;" edge="1" parent="3-jGIpkRdXsMZn57FnSe-50" source="3-jGIpkRdXsMZn57FnSe-8" target="3-jGIpkRdXsMZn57FnSe-30">
          <mxGeometry width="50" height="50" relative="1" as="geometry">
            <mxPoint x="113.30414012738854" y="20" as="sourcePoint" />
            <mxPoint x="155.89968152866243" y="-30" as="targetPoint" />
            <Array as="points">
              <mxPoint x="321" />
              <mxPoint x="535" />
            </Array>
          </mxGeometry>
        </mxCell>
        <mxCell id="3-jGIpkRdXsMZn57FnSe-49" value="" style="endArrow=classic;html=1;rounded=0;entryX=0.5;entryY=1;entryDx=0;entryDy=0;exitX=0.5;exitY=1;exitDx=0;exitDy=0;" edge="1" parent="3-jGIpkRdXsMZn57FnSe-50" source="3-jGIpkRdXsMZn57FnSe-7" target="3-jGIpkRdXsMZn57FnSe-30">
          <mxGeometry width="50" height="50" relative="1" as="geometry">
            <mxPoint x="276.8710191082802" y="-56" as="sourcePoint" />
            <mxPoint x="543.5191082802547" y="-330" as="targetPoint" />
            <Array as="points">
              <mxPoint x="6" />
              <mxPoint x="535" />
            </Array>
          </mxGeometry>
        </mxCell>
        <mxCell id="3-jGIpkRdXsMZn57FnSe-53" value="Customize Button" style="rhombus;whiteSpace=wrap;html=1;" vertex="1" parent="WIyWlLk6GJQsqaUBKTNV-1">
          <mxGeometry x="630" y="505" width="90" height="90" as="geometry" />
        </mxCell>
        <mxCell id="3-jGIpkRdXsMZn57FnSe-54" value="Weight Button" style="rhombus;whiteSpace=wrap;html=1;" vertex="1" parent="WIyWlLk6GJQsqaUBKTNV-1">
          <mxGeometry x="630" y="643.5" width="90" height="90" as="geometry" />
        </mxCell>
        <mxCell id="3-jGIpkRdXsMZn57FnSe-56" value="Customize Framework Dialog" style="rounded=1;whiteSpace=wrap;html=1;dashed=1;" vertex="1" parent="WIyWlLk6GJQsqaUBKTNV-1">
          <mxGeometry x="830" y="520" width="120" height="60" as="geometry" />
        </mxCell>
        <mxCell id="3-jGIpkRdXsMZn57FnSe-57" value="Weight Change Dialog" style="rounded=1;whiteSpace=wrap;html=1;dashed=1;" vertex="1" parent="WIyWlLk6GJQsqaUBKTNV-1">
          <mxGeometry x="830" y="658.5" width="120" height="60" as="geometry" />
        </mxCell>
        <mxCell id="3-jGIpkRdXsMZn57FnSe-59" value="" style="group" vertex="1" connectable="0" parent="WIyWlLk6GJQsqaUBKTNV-1">
          <mxGeometry x="890" y="620" as="geometry" />
        </mxCell>
        <mxCell id="3-jGIpkRdXsMZn57FnSe-60" value="" style="endArrow=classic;html=1;rounded=0;exitX=1;exitY=0.25;exitDx=0;exitDy=0;entryX=0;entryY=0.5;entryDx=0;entryDy=0;" edge="1" parent="WIyWlLk6GJQsqaUBKTNV-1" source="3-jGIpkRdXsMZn57FnSe-4" target="3-jGIpkRdXsMZn57FnSe-53">
          <mxGeometry width="50" height="50" relative="1" as="geometry">
            <mxPoint x="500" y="610" as="sourcePoint" />
            <mxPoint x="550" y="560" as="targetPoint" />
            <Array as="points">
              <mxPoint x="560" y="605" />
              <mxPoint x="560" y="550" />
            </Array>
          </mxGeometry>
        </mxCell>
        <mxCell id="3-jGIpkRdXsMZn57FnSe-61" value="" style="endArrow=classic;html=1;rounded=0;entryX=0;entryY=0.5;entryDx=0;entryDy=0;exitX=1;exitY=0.5;exitDx=0;exitDy=0;" edge="1" parent="WIyWlLk6GJQsqaUBKTNV-1" source="3-jGIpkRdXsMZn57FnSe-53" target="3-jGIpkRdXsMZn57FnSe-56">
          <mxGeometry width="50" height="50" relative="1" as="geometry">
            <mxPoint x="690" y="630" as="sourcePoint" />
            <mxPoint x="740" y="580" as="targetPoint" />
          </mxGeometry>
        </mxCell>
        <mxCell id="3-jGIpkRdXsMZn57FnSe-62" value="" style="endArrow=classic;html=1;rounded=0;entryX=0;entryY=0.5;entryDx=0;entryDy=0;exitX=1;exitY=0.75;exitDx=0;exitDy=0;" edge="1" parent="WIyWlLk6GJQsqaUBKTNV-1" source="3-jGIpkRdXsMZn57FnSe-4" target="3-jGIpkRdXsMZn57FnSe-54">
          <mxGeometry width="50" height="50" relative="1" as="geometry">
            <mxPoint x="910" y="602" as="sourcePoint" />
            <mxPoint x="505" y="640" as="targetPoint" />
            <Array as="points">
              <mxPoint x="560" y="635" />
              <mxPoint x="560" y="689" />
            </Array>
          </mxGeometry>
        </mxCell>
        <mxCell id="3-jGIpkRdXsMZn57FnSe-63" value="" style="endArrow=classic;html=1;rounded=0;entryX=0;entryY=0.5;entryDx=0;entryDy=0;exitX=1;exitY=0.5;exitDx=0;exitDy=0;" edge="1" parent="WIyWlLk6GJQsqaUBKTNV-1" source="3-jGIpkRdXsMZn57FnSe-54" target="3-jGIpkRdXsMZn57FnSe-57">
          <mxGeometry width="50" height="50" relative="1" as="geometry">
            <mxPoint x="730" y="560" as="sourcePoint" />
            <mxPoint x="840" y="560" as="targetPoint" />
          </mxGeometry>
        </mxCell>
        <mxCell id="3-jGIpkRdXsMZn57FnSe-64" value="Close Button" style="rhombus;whiteSpace=wrap;html=1;" vertex="1" parent="WIyWlLk6GJQsqaUBKTNV-1">
          <mxGeometry x="720" y="575" width="90" height="90" as="geometry" />
        </mxCell>
        <mxCell id="3-jGIpkRdXsMZn57FnSe-58" value="" style="endArrow=classic;html=1;rounded=0;exitX=0.5;exitY=0;exitDx=0;exitDy=0;entryX=1;entryY=0.5;entryDx=0;entryDy=0;" edge="1" parent="WIyWlLk6GJQsqaUBKTNV-1" source="3-jGIpkRdXsMZn57FnSe-57" target="3-jGIpkRdXsMZn57FnSe-64">
          <mxGeometry width="50" height="50" relative="1" as="geometry">
            <mxPoint x="900" y="592" as="sourcePoint" />
            <mxPoint x="810" y="620" as="targetPoint" />
            <Array as="points">
              <mxPoint x="890" y="620" />
            </Array>
          </mxGeometry>
        </mxCell>
        <mxCell id="3-jGIpkRdXsMZn57FnSe-55" value="" style="endArrow=classic;html=1;rounded=0;exitX=0.5;exitY=1;exitDx=0;exitDy=0;entryX=1;entryY=0.5;entryDx=0;entryDy=0;" edge="1" parent="WIyWlLk6GJQsqaUBKTNV-1" source="3-jGIpkRdXsMZn57FnSe-56" target="3-jGIpkRdXsMZn57FnSe-64">
          <mxGeometry width="50" height="50" relative="1" as="geometry">
            <mxPoint x="880" y="620" as="sourcePoint" />
            <mxPoint x="810" y="620" as="targetPoint" />
            <Array as="points">
              <mxPoint x="890" y="620" />
            </Array>
          </mxGeometry>
        </mxCell>
        <mxCell id="3-jGIpkRdXsMZn57FnSe-65" value="" style="endArrow=classic;html=1;rounded=0;entryX=1;entryY=0.5;entryDx=0;entryDy=0;exitX=0;exitY=0.5;exitDx=0;exitDy=0;" edge="1" parent="WIyWlLk6GJQsqaUBKTNV-1" source="3-jGIpkRdXsMZn57FnSe-64" target="3-jGIpkRdXsMZn57FnSe-4">
          <mxGeometry width="50" height="50" relative="1" as="geometry">
            <mxPoint x="610" y="660" as="sourcePoint" />
            <mxPoint x="660" y="610" as="targetPoint" />
          </mxGeometry>
        </mxCell>
      </root>
    </mxGraphModel>
  </diagram>
</mxfile>
